<?xml version="1.0" encoding="UTF-8" standalone="no" ?>
<!DOCTYPE svg PUBLIC "-//W3C//DTD SVG 1.1//EN" "http://www.w3.org/Graphics/SVG/1.1/DTD/svg11.dtd">
<svg xmlns="http://www.w3.org/2000/svg" xmlns:xlink="http://www.w3.org/1999/xlink" version="1.1" width="460.0076" height="411.62" xml:space="preserve">
<desc>Created with Fabric.js 1.6.0-rc.1</desc>
<defs></defs>
<g style="stroke: none; stroke-width: 1; stroke-dasharray: none; stroke-linecap: butt; stroke-linejoin: miter; stroke-miterlimit: 10; fill: none; fill-rule: nonzero; opacity: 1;" transform="translate(10 10) scale(1.02 1.07)" >
  <path d="m 264 1420 c -6 -70 49 -140 124 -140 l 2662 -240 c 70 0 140 50 150 130 l 120 1370 c 0 80 -50 150 -130 150 L 533 2930 c -75 0 -141 -50 -148 -130 L 264 1420" style="stroke: none; stroke-width: 1; stroke-dasharray: none; stroke-linecap: butt; stroke-linejoin: miter; stroke-miterlimit: 10; fill: #225922; fill-rule: nonzero; opacity: 1;" transform=" matrix(0.125 0 0 -0.125 0 366) " stroke-linecap="round" />
  <path d="m 572 2580 c 97 0 181 60 189 150 c 1 10 0 20 -2 40 l 2191 -200 c 0 -10 -10 -20 -10 -30 c -10 -90 70 -170 160 -180 c 10 0 30 0 40 0 l -90 -980 c -10 10 -20 10 -30 10 c -100 10 -180 -50 -190 -140 c 0 -20 0 -30 0 -50 L 636 1400 c 6 10 10 20 12 40 c 8 90 -65 160 -162 170 c -15 0 -29 0 -44 0 l 87 980 c 13 0 28 0 43 -10" style="stroke: none; stroke-width: 1; stroke-dasharray: none; stroke-linecap: butt; stroke-linejoin: miter; stroke-miterlimit: 10; fill: #ffffff; fill-rule: nonzero; opacity: 1;" transform=" matrix(0.125 0 0 -0.125 0 366) " stroke-linecap="round" />
  <path d="m 572 2580 c 97 0 181 60 189 150 c 1 10 0 20 -2 40 l 2191 -200 c 0 -10 -10 -20 -10 -30 c -10 -90 70 -170 160 -180 c 10 0 30 0 40 0 l -90 -980 c -10 10 -20 10 -30 10 c -100 10 -180 -50 -190 -140 c 0 -20 0 -30 0 -50 L 636 1400 c 6 10 10 20 12 40 c 8 90 -65 160 -162 170 c -15 0 -29 0 -44 0 l 87 980 c 13 0 28 0 43 -10 z" style="stroke: #ffffff; stroke-width: 8.6; stroke-dasharray: none; stroke-linecap: round; stroke-linejoin: round; stroke-miterlimit: 10; fill: none; fill-rule: nonzero; opacity: 1;" transform=" matrix(0.125 0 0 -0.125 0 366) " stroke-linecap="round" />
  <path d="m 1250 2060 c -20 -270 200 -510 500 -540 c 300 -30 560 170 580 440 c 30 270 -200 510 -490 540 c -300 20 -570 -180 -590 -440 l 0 0" style="stroke: none; stroke-width: 1; stroke-dasharray: none; stroke-linecap: butt; stroke-linejoin: miter; stroke-miterlimit: 10; fill: #358b38; fill-rule: nonzero; opacity: 1;" transform=" matrix(0.125 0 0 -0.125 0 366) " stroke-linecap="round" />
  <path d="m 1820 1810 c -20 -10 -50 -20 -80 -10 l 30 180 c 20 0 30 -10 50 -20 c 20 -10 30 -20 50 -40 c 10 -20 10 -30 10 -60 c -10 -20 -30 -40 -60 -50 z m -90 330 c -10 0 -20 10 -30 20 c -20 10 -30 20 -30 30 c -10 10 -10 20 -10 40 c 10 20 20 30 50 40 c 20 10 40 10 70 10 l -30 -150 c -10 0 -10 0 -20 10 z m 290 -200 c -10 20 -20 40 -40 60 c -20 20 -50 40 -80 60 c -30 10 -60 30 -100 40 l 30 170 c 30 -10 40 -20 60 -30 c 10 -20 20 -40 30 -70 c 10 -20 10 -30 20 -40 c 10 -10 20 -20 40 -20 c 10 0 30 0 50 10 c 10 10 20 20 20 40 c 10 10 0 30 0 50 c -10 20 -20 40 -40 60 c -20 20 -40 40 -70 60 c -20 10 -50 20 -90 30 l 20 80 l -50 10 l -20 -80 c -40 10 -80 10 -120 0 c -40 0 -70 -20 -100 -40 c -30 -20 -50 -50 -50 -90 c -10 -40 -10 -70 10 -100 c 10 -30 40 -50 70 -70 c 30 -20 70 -50 120 -70 l -40 -190 c -20 0 -40 10 -50 20 c -20 10 -30 30 -40 40 c 0 20 -10 40 -10 60 c -10 20 -10 30 -20 40 c -10 10 -20 20 -40 20 c -20 10 -30 0 -50 0 c -10 -10 -20 -30 -30 -40 c 0 -30 0 -60 20 -90 c 10 -30 30 -60 60 -90 c 40 -20 80 -40 140 -60 l -20 -70 l 50 -10 l 20 70 c 50 -10 90 -10 140 0 c 40 10 80 30 110 50 c 30 30 40 60 50 100 c 10 30 10 60 0 90" style="stroke: none; stroke-width: 1; stroke-dasharray: none; stroke-linecap: butt; stroke-linejoin: miter; stroke-miterlimit: 10; fill: #ffffff; fill-rule: nonzero; opacity: 1;" transform=" matrix(0.125 0 0 -0.125 0 366) " stroke-linecap="round" />
  <path d="m 3450 2050 c 0 60 -50 110 -110 110 l -3232 0 C 48.3 2160 0 2110 0 2050 L 0 108 C 0 48.3 48.3 0 108 0 l 3232 0 c 60 0 110 48.3 110 108 l 0 1942" style="stroke: none; stroke-width: 1; stroke-dasharray: none; stroke-linecap: butt; stroke-linejoin: miter; stroke-miterlimit: 10; fill: #999997; fill-rule: nonzero; opacity: 1;" transform=" matrix(0.125 0 0 -0.125 0 366) " stroke-linecap="round" />
  <path d="m 2290 1340 c 0 60 50 110 110 110 l 1050 0 l 0 -665 l -1050 0 c -60 0 -110 48 -110 108 l 0 447" style="stroke: none; stroke-width: 1; stroke-dasharray: none; stroke-linecap: butt; stroke-linejoin: miter; stroke-miterlimit: 10; fill: #787878; fill-rule: nonzero; opacity: 1;" transform=" matrix(0.125 0 0 -0.125 0 366) " stroke-linecap="round" />
  <path d="m 2310 1300 c 0 60 50 110 110 110 l 1030 0 l 0 -663 l -1030 0 c -60 0 -110 48 -110 108 l 0 445" style="stroke: none; stroke-width: 1; stroke-dasharray: none; stroke-linecap: butt; stroke-linejoin: miter; stroke-miterlimit: 10; fill: #7d7d7d; fill-rule: nonzero; opacity: 1;" transform=" matrix(0.125 0 0 -0.125 0 366) " stroke-linecap="round" />
  <path d="m 3070 87.6 l -110 0 c -20 0 -20 8.6 -20 19.4 c 0 10 0 19 20 19 l 110 0 c 10 0 20 -9 20 -19 c 0 -10.8 -10 -19.4 -20 -19.4 l 0 0" style="stroke: none; stroke-width: 1; stroke-dasharray: none; stroke-linecap: butt; stroke-linejoin: miter; stroke-miterlimit: 10; fill: #bfb290; fill-rule: nonzero; opacity: 1;" transform=" matrix(0.125 0 0 -0.125 0 366) " stroke-linecap="round" />
  <path d="m 2840 87.6 l -120 0 c -10 0 -20 8.6 -20 19.4 c 0 10 10 19 20 19 l 120 0 c 10 0 20 -9 20 -19 c 0 -10.8 -10 -19.4 -20 -19.4 l 0 0" style="stroke: none; stroke-width: 1; stroke-dasharray: none; stroke-linecap: butt; stroke-linejoin: miter; stroke-miterlimit: 10; fill: #bfb290; fill-rule: nonzero; opacity: 1;" transform=" matrix(0.125 0 0 -0.125 0 366) " stroke-linecap="round" />
  <path d="m 2600 87.6 l -110 0 c -10 0 -20 8.6 -20 19.4 c 0 10 10 19 20 19 l 110 0 c 10 0 20 -9 20 -19 c 0 -10.8 -10 -19.4 -20 -19.4 l 0 0" style="stroke: none; stroke-width: 1; stroke-dasharray: none; stroke-linecap: butt; stroke-linejoin: miter; stroke-miterlimit: 10; fill: #bfb290; fill-rule: nonzero; opacity: 1;" transform=" matrix(0.125 0 0 -0.125 0 366) " stroke-linecap="round" />
  <path d="m 2370 87.6 l -120 0 c -10 0 -20 8.6 -20 19.4 c 0 10 10 19 20 19 l 120 0 c 10 0 20 -9 20 -19 c 0 -10.8 -10 -19.4 -20 -19.4 l 0 0" style="stroke: none; stroke-width: 1; stroke-dasharray: none; stroke-linecap: butt; stroke-linejoin: miter; stroke-miterlimit: 10; fill: #bfb290; fill-rule: nonzero; opacity: 1;" transform=" matrix(0.125 0 0 -0.125 0 366) " stroke-linecap="round" />
  <path d="m 2140 87.6 l -120 0 c -10 0 -20 8.6 -20 19.4 c 0 10 10 19 20 19 l 120 0 c 10 0 20 -9 20 -19 c 0 -10.8 -10 -19.4 -20 -19.4 l 0 0" style="stroke: none; stroke-width: 1; stroke-dasharray: none; stroke-linecap: butt; stroke-linejoin: miter; stroke-miterlimit: 10; fill: #bfb290; fill-rule: nonzero; opacity: 1;" transform=" matrix(0.125 0 0 -0.125 0 366) " stroke-linecap="round" />
  <path d="m 1900 87.6 l -120 0 c -10 0 -10 8.6 -10 19.4 c 0 10 0 19 10 19 l 120 0 c 10 0 20 -9 20 -19 c 0 -10.8 -10 -19.4 -20 -19.4 l 0 0" style="stroke: none; stroke-width: 1; stroke-dasharray: none; stroke-linecap: butt; stroke-linejoin: miter; stroke-miterlimit: 10; fill: #bfb290; fill-rule: nonzero; opacity: 1;" transform=" matrix(0.125 0 0 -0.125 0 366) " stroke-linecap="round" />
  <path d="m 1670 87.6 l -120 0 c -10 0 -20 8.6 -20 19.4 c 0 10 10 19 20 19 l 120 0 c 10 0 20 -9 20 -19 c 0 -10.8 -10 -19.4 -20 -19.4 l 0 0" style="stroke: none; stroke-width: 1; stroke-dasharray: none; stroke-linecap: butt; stroke-linejoin: miter; stroke-miterlimit: 10; fill: #bfb290; fill-rule: nonzero; opacity: 1;" transform=" matrix(0.125 0 0 -0.125 0 366) " stroke-linecap="round" />
  <path d="m 1430 87.6 l -110 0 c -10 0 -20 8.6 -20 19.4 c 0 10 10 19 20 19 l 110 0 c 10 0 20 -9 20 -19 c 0 -10.8 -10 -19.4 -20 -19.4 l 0 0" style="stroke: none; stroke-width: 1; stroke-dasharray: none; stroke-linecap: butt; stroke-linejoin: miter; stroke-miterlimit: 10; fill: #bfb290; fill-rule: nonzero; opacity: 1;" transform=" matrix(0.125 0 0 -0.125 0 366) " stroke-linecap="round" />
  <path d="m 1200 87.6 l -120 0 c -10 0 -20 8.6 -20 19.4 c 0 10 10 19 20 19 l 120 0 c 10 0 20 -9 20 -19 c 0 -10.8 -10 -19.4 -20 -19.4 l 0 0" style="stroke: none; stroke-width: 1; stroke-dasharray: none; stroke-linecap: butt; stroke-linejoin: miter; stroke-miterlimit: 10; fill: #bfb290; fill-rule: nonzero; opacity: 1;" transform=" matrix(0.125 0 0 -0.125 0 366) " stroke-linecap="round" />
  <path d="m 965 87.6 l -118 0 c -10 0 -19 8.6 -19 19.4 c 0 10 9 19 19 19 l 118 0 c 10 0 19 -9 19 -19 c 0 -10.8 -9 -19.4 -19 -19.4 l 0 0" style="stroke: none; stroke-width: 1; stroke-dasharray: none; stroke-linecap: butt; stroke-linejoin: miter; stroke-miterlimit: 10; fill: #bfb290; fill-rule: nonzero; opacity: 1;" transform=" matrix(0.125 0 0 -0.125 0 366) " stroke-linecap="round" />
  <path d="m 730 87.6 l -117 0 c -10 0 -19 8.6 -19 19.4 c 0 10 9 19 19 19 l 117 0 c 11 0 20 -9 20 -19 c 0 -10.8 -9 -19.4 -20 -19.4 l 0 0" style="stroke: none; stroke-width: 1; stroke-dasharray: none; stroke-linecap: butt; stroke-linejoin: miter; stroke-miterlimit: 10; fill: #bfb290; fill-rule: nonzero; opacity: 1;" transform=" matrix(0.125 0 0 -0.125 0 366) " stroke-linecap="round" />
  <path d="m 3070 2030 l -110 0 c -20 0 -20 10 -20 20 c 0 10 0 20 20 20 l 110 0 c 10 0 20 -10 20 -20 c 0 -10 -10 -20 -20 -20 l 0 0" style="stroke: none; stroke-width: 1; stroke-dasharray: none; stroke-linecap: butt; stroke-linejoin: miter; stroke-miterlimit: 10; fill: #bfb290; fill-rule: nonzero; opacity: 1;" transform=" matrix(0.125 0 0 -0.125 0 366) " stroke-linecap="round" />
  <path d="m 2840 2030 l -120 0 c -10 0 -20 10 -20 20 c 0 10 10 20 20 20 l 120 0 c 10 0 20 -10 20 -20 c 0 -10 -10 -20 -20 -20 l 0 0" style="stroke: none; stroke-width: 1; stroke-dasharray: none; stroke-linecap: butt; stroke-linejoin: miter; stroke-miterlimit: 10; fill: #bfb290; fill-rule: nonzero; opacity: 1;" transform=" matrix(0.125 0 0 -0.125 0 366) " stroke-linecap="round" />
  <path d="m 2600 2030 l -110 0 c -10 0 -20 10 -20 20 c 0 10 10 20 20 20 l 110 0 c 10 0 20 -10 20 -20 c 0 -10 -10 -20 -20 -20 l 0 0" style="stroke: none; stroke-width: 1; stroke-dasharray: none; stroke-linecap: butt; stroke-linejoin: miter; stroke-miterlimit: 10; fill: #bfb290; fill-rule: nonzero; opacity: 1;" transform=" matrix(0.125 0 0 -0.125 0 366) " stroke-linecap="round" />
  <path d="m 2370 2030 l -120 0 c -10 0 -20 10 -20 20 c 0 10 10 20 20 20 l 120 0 c 10 0 20 -10 20 -20 c 0 -10 -10 -20 -20 -20 l 0 0" style="stroke: none; stroke-width: 1; stroke-dasharray: none; stroke-linecap: butt; stroke-linejoin: miter; stroke-miterlimit: 10; fill: #bfb290; fill-rule: nonzero; opacity: 1;" transform=" matrix(0.125 0 0 -0.125 0 366) " stroke-linecap="round" />
  <path d="m 2140 2030 l -120 0 c -10 0 -20 10 -20 20 c 0 10 10 20 20 20 l 120 0 c 10 0 20 -10 20 -20 c 0 -10 -10 -20 -20 -20 l 0 0" style="stroke: none; stroke-width: 1; stroke-dasharray: none; stroke-linecap: butt; stroke-linejoin: miter; stroke-miterlimit: 10; fill: #bfb290; fill-rule: nonzero; opacity: 1;" transform=" matrix(0.125 0 0 -0.125 0 366) " stroke-linecap="round" />
  <path d="m 1900 2030 l -120 0 c -10 0 -10 10 -10 20 c 0 10 0 20 10 20 l 120 0 c 10 0 20 -10 20 -20 c 0 -10 -10 -20 -20 -20 l 0 0" style="stroke: none; stroke-width: 1; stroke-dasharray: none; stroke-linecap: butt; stroke-linejoin: miter; stroke-miterlimit: 10; fill: #bfb290; fill-rule: nonzero; opacity: 1;" transform=" matrix(0.125 0 0 -0.125 0 366) " stroke-linecap="round" />
  <path d="m 1670 2030 l -120 0 c -10 0 -20 10 -20 20 c 0 10 10 20 20 20 l 120 0 c 10 0 20 -10 20 -20 c 0 -10 -10 -20 -20 -20 l 0 0" style="stroke: none; stroke-width: 1; stroke-dasharray: none; stroke-linecap: butt; stroke-linejoin: miter; stroke-miterlimit: 10; fill: #bfb290; fill-rule: nonzero; opacity: 1;" transform=" matrix(0.125 0 0 -0.125 0 366) " stroke-linecap="round" />
  <path d="m 1430 2030 l -110 0 c -10 0 -20 10 -20 20 c 0 10 10 20 20 20 l 110 0 c 10 0 20 -10 20 -20 c 0 -10 -10 -20 -20 -20 l 0 0" style="stroke: none; stroke-width: 1; stroke-dasharray: none; stroke-linecap: butt; stroke-linejoin: miter; stroke-miterlimit: 10; fill: #bfb290; fill-rule: nonzero; opacity: 1;" transform=" matrix(0.125 0 0 -0.125 0 366) " stroke-linecap="round" />
  <path d="m 1200 2030 l -120 0 c -10 0 -20 10 -20 20 c 0 10 10 20 20 20 l 120 0 c 10 0 20 -10 20 -20 c 0 -10 -10 -20 -20 -20 l 0 0" style="stroke: none; stroke-width: 1; stroke-dasharray: none; stroke-linecap: butt; stroke-linejoin: miter; stroke-miterlimit: 10; fill: #bfb290; fill-rule: nonzero; opacity: 1;" transform=" matrix(0.125 0 0 -0.125 0 366) " stroke-linecap="round" />
  <path d="m 965 2030 l -118 0 c -10 0 -19 10 -19 20 c 0 10 9 20 19 20 l 118 0 c 10 0 19 -10 19 -20 c 0 -10 -9 -20 -19 -20 l 0 0" style="stroke: none; stroke-width: 1; stroke-dasharray: none; stroke-linecap: butt; stroke-linejoin: miter; stroke-miterlimit: 10; fill: #bfb290; fill-rule: nonzero; opacity: 1;" transform=" matrix(0.125 0 0 -0.125 0 366) " stroke-linecap="round" />
  <path d="m 730 2030 l -117 0 c -10 0 -19 10 -19 20 c 0 10 9 20 19 20 l 117 0 c 11 0 20 -10 20 -20 c 0 -10 -9 -20 -20 -20 l 0 0" style="stroke: none; stroke-width: 1; stroke-dasharray: none; stroke-linecap: butt; stroke-linejoin: miter; stroke-miterlimit: 10; fill: #bfb290; fill-rule: nonzero; opacity: 1;" transform=" matrix(0.125 0 0 -0.125 0 366) " stroke-linecap="round" />
  <path d="m 496 2030 l -117 0 c -10 0 -19 10 -19 20 c 0 10 9 20 19 20 l 117 0 c 11 0 19 -10 19 -20 c 0 -10 -8 -20 -19 -20 l 0 0" style="stroke: none; stroke-width: 1; stroke-dasharray: none; stroke-linecap: butt; stroke-linejoin: miter; stroke-miterlimit: 10; fill: #bfb290; fill-rule: nonzero; opacity: 1;" transform=" matrix(0.125 0 0 -0.125 0 366) " stroke-linecap="round" />
  <path d="m 496 126 l -117 0 c -10 0 -19 -9 -19 -19 c 0 -10.8 9 -19.4 19 -19.4 l 117 0 c 11 0 19 8.6 19 19.4 c 0 10 -8 19 -19 19" style="stroke: none; stroke-width: 1; stroke-dasharray: none; stroke-linecap: butt; stroke-linejoin: miter; stroke-miterlimit: 10; fill: #bfb290; fill-rule: nonzero; opacity: 1;" transform=" matrix(0.125 0 0 -0.125 0 366) " stroke-linecap="round" />
  <path d="m 262 126 l -58 0 c -11 0 -22 2 -32 6 c -9 4 -21 -1 -25 -11 c -3 -10 2 -21.2 11 -25 c 15 -5.6 30 -8.4 46 -8.4 l 58 0 c 11 0 19 8.6 19 19.4 c 0 10 -8 19 -19 19" style="stroke: none; stroke-width: 1; stroke-dasharray: none; stroke-linecap: butt; stroke-linejoin: miter; stroke-miterlimit: 10; fill: #bfb290; fill-rule: nonzero; opacity: 1;" transform=" matrix(0.125 0 0 -0.125 0 366) " stroke-linecap="round" />
  <path d="m 121 204 l 0 55 c 0 10 -8 19 -19 19 c -10.5 0 -19.1 -9 -19.1 -19 l 0 -55 c 0 -16 3.2 -31 9.6 -46 c 3.2 -7 10.5 -11 17.5 -11 c 3 0 5 0 8 2 c 10 4 14 15 10 25 c -5 9 -7 20 -7 30" style="stroke: none; stroke-width: 1; stroke-dasharray: none; stroke-linecap: butt; stroke-linejoin: miter; stroke-miterlimit: 10; fill: #bfb290; fill-rule: nonzero; opacity: 1;" transform=" matrix(0.125 0 0 -0.125 0 366) " stroke-linecap="round" />
  <path d="m 102 567 c 11 0 19 9 19 20 l 0 109 c 0 11 -8 19 -19 19 c -10.5 0 -19.1 -8 -19.1 -19 l 0 -109 c 0 -11 8.6 -20 19.1 -20" style="stroke: none; stroke-width: 1; stroke-dasharray: none; stroke-linecap: butt; stroke-linejoin: miter; stroke-miterlimit: 10; fill: #bfb290; fill-rule: nonzero; opacity: 1;" transform=" matrix(0.125 0 0 -0.125 0 366) " stroke-linecap="round" />
  <path d="m 102 786 c 11 0 19 9 19 19 l 0 110 c 0 10 -8 19 -19 19 c -10.5 0 -19.1 -9 -19.1 -19 l 0 -110 c 0 -10 8.6 -19 19.1 -19" style="stroke: none; stroke-width: 1; stroke-dasharray: none; stroke-linecap: butt; stroke-linejoin: miter; stroke-miterlimit: 10; fill: #bfb290; fill-rule: nonzero; opacity: 1;" transform=" matrix(0.125 0 0 -0.125 0 366) " stroke-linecap="round" />
  <path d="m 102 349 c 11 0 19 8 19 19 l 0 109 c 0 11 -8 20 -19 20 c -10.5 0 -19.1 -9 -19.1 -20 l 0 -109 c 0 -11 8.6 -19 19.1 -19" style="stroke: none; stroke-width: 1; stroke-dasharray: none; stroke-linecap: butt; stroke-linejoin: miter; stroke-miterlimit: 10; fill: #bfb290; fill-rule: nonzero; opacity: 1;" transform=" matrix(0.125 0 0 -0.125 0 366) " stroke-linecap="round" />
  <path d="m 102 1010 c 11 0 19 0 19 10 l 0 110 c 0 10 -8 20 -19 20 c -10.5 0 -19.1 -10 -19.1 -20 l 0 -110 c 0 -10 8.6 -10 19.1 -10" style="stroke: none; stroke-width: 1; stroke-dasharray: none; stroke-linecap: butt; stroke-linejoin: miter; stroke-miterlimit: 10; fill: #bfb290; fill-rule: nonzero; opacity: 1;" transform=" matrix(0.125 0 0 -0.125 0 366) " stroke-linecap="round" />
  <path d="m 102 1220 c 11 0 19 10 19 20 l 0 110 c 0 10 -8 20 -19 20 c -10.5 0 -19.1 -10 -19.1 -20 l 0 -110 c 0 -10 8.6 -20 19.1 -20" style="stroke: none; stroke-width: 1; stroke-dasharray: none; stroke-linecap: butt; stroke-linejoin: miter; stroke-miterlimit: 10; fill: #bfb290; fill-rule: nonzero; opacity: 1;" transform=" matrix(0.125 0 0 -0.125 0 366) " stroke-linecap="round" />
  <path d="m 102 1660 c 11 0 19 10 19 20 l 0 110 c 0 10 -8 20 -19 20 c -10.5 0 -19.1 -10 -19.1 -20 l 0 -110 c 0 -10 8.6 -20 19.1 -20" style="stroke: none; stroke-width: 1; stroke-dasharray: none; stroke-linecap: butt; stroke-linejoin: miter; stroke-miterlimit: 10; fill: #bfb290; fill-rule: nonzero; opacity: 1;" transform=" matrix(0.125 0 0 -0.125 0 366) " stroke-linecap="round" />
  <path d="m 102 1440 c 11 0 19 10 19 20 l 0 110 c 0 10 -8 20 -19 20 c -10.5 0 -19.1 -10 -19.1 -20 l 0 -110 c 0 -10 8.6 -20 19.1 -20" style="stroke: none; stroke-width: 1; stroke-dasharray: none; stroke-linecap: butt; stroke-linejoin: miter; stroke-miterlimit: 10; fill: #bfb290; fill-rule: nonzero; opacity: 1;" transform=" matrix(0.125 0 0 -0.125 0 366) " stroke-linecap="round" />
  <path d="m 118 2010 c -10 0 -21.1 0 -25.5 -10 c -6.4 -20 -9.6 -30 -9.6 -50 l 0 -50 c 0 -10 8.6 -20 19.1 -20 c 11 0 19 10 19 20 l 0 50 c 0 10 2 20 7 30 c 4 10 0 20 -10 30" style="stroke: none; stroke-width: 1; stroke-dasharray: none; stroke-linecap: butt; stroke-linejoin: miter; stroke-miterlimit: 10; fill: #bfb290; fill-rule: nonzero; opacity: 1;" transform=" matrix(0.125 0 0 -0.125 0 366) " stroke-linecap="round" />
  <path d="m 262 2070 l -58 0 c -16 0 -31 0 -46 -10 c -9 0 -14 -10 -10 -20 c 2 -10 10 -20 17 -20 c 3 0 5 0 7 10 c 10 0 21 0 32 0 l 58 0 c 11 0 19 10 19 20 c 0 10 -8 20 -19 20" style="stroke: none; stroke-width: 1; stroke-dasharray: none; stroke-linecap: butt; stroke-linejoin: miter; stroke-miterlimit: 10; fill: #bfb290; fill-rule: nonzero; opacity: 1;" transform=" matrix(0.125 0 0 -0.125 0 366) " stroke-linecap="round" />
  <path d="m 3280 132 c -10 -4 -20 -6 -30 -6 l -60 0 c -10 0 -20 -9 -20 -19 c 0 -10.8 10 -19.4 20 -19.4 l 60 0 c 10 0 30 2.8 40 8.4 c 10 3.9 20 15 10 25 c 0 10 -10 15 -20 11" style="stroke: none; stroke-width: 1; stroke-dasharray: none; stroke-linecap: butt; stroke-linejoin: miter; stroke-miterlimit: 10; fill: #bfb290; fill-rule: nonzero; opacity: 1;" transform=" matrix(0.125 0 0 -0.125 0 366) " stroke-linecap="round" />
  <path d="m 3350 715 c -10 0 -20 -8 -20 -19 l 0 -109 c 0 -11 10 -20 20 -20 c 10 0 20 9 20 20 l 0 109 c 0 11 -10 19 -20 19" style="stroke: none; stroke-width: 1; stroke-dasharray: none; stroke-linecap: butt; stroke-linejoin: miter; stroke-miterlimit: 10; fill: #bfb290; fill-rule: nonzero; opacity: 1;" transform=" matrix(0.125 0 0 -0.125 0 366) " stroke-linecap="round" />
  <path d="m 3350 278 c -10 0 -20 -9 -20 -19 l 0 -55 c 0 -10 0 -21 -10 -30 c 0 -10 0 -21 10 -25 c 10 -2 10 -2 10 -2 c 10 0 20 4 20 11 c 10 15 10 30 10 46 l 0 55 c 0 10 -10 19 -20 19" style="stroke: none; stroke-width: 1; stroke-dasharray: none; stroke-linecap: butt; stroke-linejoin: miter; stroke-miterlimit: 10; fill: #bfb290; fill-rule: nonzero; opacity: 1;" transform=" matrix(0.125 0 0 -0.125 0 366) " stroke-linecap="round" />
  <path d="m 3350 497 c -10 0 -20 -9 -20 -20 l 0 -109 c 0 -11 10 -19 20 -19 c 10 0 20 8 20 19 l 0 109 c 0 11 -10 20 -20 20" style="stroke: none; stroke-width: 1; stroke-dasharray: none; stroke-linecap: butt; stroke-linejoin: miter; stroke-miterlimit: 10; fill: #bfb290; fill-rule: nonzero; opacity: 1;" transform=" matrix(0.125 0 0 -0.125 0 366) " stroke-linecap="round" />
  <path d="m 3350 1810 c -10 0 -20 -10 -20 -20 l 0 -110 c 0 -10 10 -20 20 -20 c 10 0 20 10 20 20 l 0 110 c 0 10 -10 20 -20 20" style="stroke: none; stroke-width: 1; stroke-dasharray: none; stroke-linecap: butt; stroke-linejoin: miter; stroke-miterlimit: 10; fill: #bfb290; fill-rule: nonzero; opacity: 1;" transform=" matrix(0.125 0 0 -0.125 0 366) " stroke-linecap="round" />
  <path d="m 3350 1590 c -10 0 -20 -10 -20 -20 l 0 -110 c 0 -10 10 -20 20 -20 c 10 0 20 10 20 20 l 0 110 c 0 10 -10 20 -20 20" style="stroke: none; stroke-width: 1; stroke-dasharray: none; stroke-linecap: butt; stroke-linejoin: miter; stroke-miterlimit: 10; fill: #bfb290; fill-rule: nonzero; opacity: 1;" transform=" matrix(0.125 0 0 -0.125 0 366) " stroke-linecap="round" />
  <path d="m 3290 2060 c -10 10 -30 10 -40 10 l -60 0 c -10 0 -20 -10 -20 -20 c 0 -10 10 -20 20 -20 l 60 0 c 10 0 20 0 30 0 c 0 -10 0 -10 10 -10 c 0 0 10 10 10 20 c 10 10 0 20 -10 20" style="stroke: none; stroke-width: 1; stroke-dasharray: none; stroke-linecap: butt; stroke-linejoin: miter; stroke-miterlimit: 10; fill: #bfb290; fill-rule: nonzero; opacity: 1;" transform=" matrix(0.125 0 0 -0.125 0 366) " stroke-linecap="round" />
  <path d="m 3360 2000 c -10 10 -20 10 -30 10 c -10 -10 -10 -20 -10 -30 c 10 -10 10 -20 10 -30 l 0 -50 c 0 -10 10 -20 20 -20 c 10 0 20 10 20 20 l 0 50 c 0 20 0 30 -10 50" style="stroke: none; stroke-width: 1; stroke-dasharray: none; stroke-linecap: butt; stroke-linejoin: miter; stroke-miterlimit: 10; fill: #bfb290; fill-rule: nonzero; opacity: 1;" transform=" matrix(0.125 0 0 -0.125 0 366) " stroke-linecap="round" />
  <path d="m 2810 1080 c 0 90 -70 160 -160 160 c -80 0 -150 -70 -150 -160 c 0 -89 70 -160 150 -160 c 90 0 160 71 160 160" style="stroke: none; stroke-width: 1; stroke-dasharray: none; stroke-linecap: butt; stroke-linejoin: miter; stroke-miterlimit: 10; fill: #bfb290; fill-rule: nonzero; opacity: 1;" transform=" matrix(0.125 0 0 -0.125 0 366) " stroke-linecap="round" />
</g>
</svg>